Simulation
nRows=33
nColumns=15
endheader
time  TH_x TH_y TH_z SC_y  SC_z  SC_x  AC_y  AC_z  AC_x  GH_y  GH_z  GH_yy  EL_x  PS_y
0.0  0.000000  0.000000  0.000000  -29.420517596567983  1.198505691415509  18.70559426769364  60.15439999899623  9.052862757040414  -1.0604679855456347  54.63452216430374  48.20318203424472  -54.34570748457495  23.963258535727874  0.000000
0.04  0.000000  0.000000  0.000000  -29.364613840812257  1.4517784917242909  19.40482168415695  59.15013950279365  9.0460516388834  -0.28666572306857163  53.9480230916244  49.4359677412187  -53.65243439633701  24.408709461497434  0.000000
0.08  0.000000  0.000000  0.000000  -29.0595047419677  1.6858026805545205  19.74181938823922  58.68723015165463  8.665611325056046  0.04284570473359999  53.49951158975297  49.92018600710573  -52.87670910002526  24.62077791526468  0.000000
0.12  0.000000  0.000000  0.000000  -28.95687972152001  1.7070738131318808  19.887434006051922  58.63550999901018  8.469704382615744  0.06756560302605306  53.35532783055366  50.02893835632881  -52.294531448516864  24.720103863016256  0.000000
0.16  0.000000  0.000000  0.000000  -28.817008693935843  1.8415968846836082  19.940954405490093  58.47081846318058  8.303326813995252  0.10984987369488265  53.14439866307372  50.04974660034577  -51.302306015703415  24.70788866871108  0.000000
0.2  0.000000  0.000000  0.000000  -28.759047395832365  1.9091409214926398  19.95312321332605  58.317569393212004  8.25092390635065  0.20474517251154026  52.733611445112324  50.13380629805727  -49.98060266057089  24.628108665695457  0.000000
0.24  0.000000  0.000000  0.000000  -28.690789621028014  2.0769421530248406  19.926048095209342  58.0962829247892  8.245860569810699  0.408894263784396  52.054432578714184  50.37357624584545  -48.16217446605517  24.534272416203134  0.000000
0.28  0.000000  0.000000  0.000000  -28.66974641520475  2.2633552619486554  19.83828228564297  57.86271311336545  8.27522565359308  0.7581232835734271  51.159814721868436  50.82658532999713  -45.88511048257452  24.495324390981224  0.000000
0.32  0.000000  0.000000  0.000000  -28.66270767960276  2.5372455715741893  19.68167634369647  57.6460228544532  8.369182600415943  1.2382933052728076  50.15542693401084  51.50788286390493  -43.2659558915646  24.55218657775745  0.000000
0.36  0.000000  0.000000  0.000000  -28.688777131768248  2.848698278260597  19.435612003799395  57.42384393415985  8.500272041143447  1.9122765980964507  49.146931038056145  52.41608916498529  -40.42910822818823  24.677037399280064  0.000000
0.4  0.000000  0.000000  0.000000  -28.727256079551292  3.2219186002391327  19.09069144155577  57.21946212382291  8.739841971308444  2.766203007367715  48.252859393778756  53.49023246678737  -37.62529989483519  24.865031235460208  0.000000
0.44  0.000000  0.000000  0.000000  -28.799800335951762  3.628483605015074  18.63501373094838  57.006573547254334  9.061848662413668  3.852936029630022  47.55925519335314  54.695817156620976  -34.938943105624155  25.080573047260014  0.000000
0.48  0.000000  0.000000  0.000000  -28.895945877793682  4.059547298485531  18.070522941275946  56.816024139918085  9.526736093581684  5.158540566662817  47.13700516399032  55.95268235546696  -32.54242131239014  25.293136401680858  0.000000
0.52  0.000000  0.000000  0.000000  -29.039260745726594  4.479084488392454  17.411577275360525  56.65099445331901  10.120364159012441  6.694293998216232  47.034346905660904  57.22331315179222  -30.391210444421976  25.45228608476297  0.000000
0.56  0.000000  0.000000  0.000000  -29.23396886566693  4.86238466246924  16.6783743952312  56.54695290198098  10.863031143601438  8.421040854155434  47.26388966763106  58.44509054825757  -28.5306043338214  25.5344135411839  0.000000
0.6  0.000000  0.000000  0.000000  -29.485292823380725  5.182303819205405  15.906135410728794  56.504475867522736  11.740496918735932  10.2986216972464  47.82779404292201  59.568195750093395  -26.90399084777567  25.499727419962507  0.000000
0.64  0.000000  0.000000  0.000000  -29.771328458317683  5.432549729433894  15.109280691288843  56.498976355788095  12.707435392362132  12.283059928444255  48.70131949038493  60.54427323683578  -25.536143326196516  25.336522262520255  0.000000
0.68  0.000000  0.000000  0.000000  -30.069369693228523  5.611685105732395  14.328241775192065  56.51949189718616  13.73341177104648  14.283214119773172  49.848191705947315  61.35393036251103  -24.372178224717935  25.04543916914638  0.000000
0.72  0.000000  0.000000  0.000000  -30.349102200560022  5.726769721185361  13.580590236346605  56.539784746044624  14.731304817008954  16.257014818901514  51.22539645610545  61.98837912650853  -23.40511087571797  24.634399360110287  0.000000
0.76  0.000000  0.000000  0.000000  -30.592660800973718  5.800910434118552  12.903437514742553  56.56913786586119  15.669963843242947  18.11937294356883  52.76276343184053  62.458332171167584  -22.608331464676013  24.138029913979803  0.000000
0.8  0.000000  0.000000  0.000000  -30.77893481763209  5.862007414158607  12.293027551337246  56.58527334012699  16.484764490416627  19.844092250494413  54.39007164529651  62.78706848403264  -21.96840781256999  23.610210079972695  0.000000
0.84  0.000000  0.000000  0.000000  -30.895077782098586  5.940116615602848  11.75686219519316  56.59627398416533  17.162574502597497  21.3818557111  56.019716352377  63.002523013036495  -21.4983847820076  23.08710024120956  0.000000
0.88  0.000000  0.000000  0.000000  -30.930372029762218  6.039032971330793  11.28296463624418  56.58319747865028  17.685034140018487  22.707710576075538  57.584659272270294  63.140171930545094  -21.150130174508426  22.591173907513728  0.000000
0.92  0.000000  0.000000  0.000000  -30.902680138648538  6.140131387902731  10.880822739645902  56.562163235175255  18.079498115180936  23.78156990660813  59.01143612406305  63.22827634358733  -20.874545526262835  22.0981122749764  0.000000
0.96  0.000000  0.000000  0.000000  -30.826275932907627  6.2219063190368775  10.545136919624495  56.52358714315006  18.360894264501518  24.581930718507504  60.24229841751172  63.298827908093216  -20.583857337298557  21.587939585594892  0.000000
1.0  0.000000  0.000000  0.000000  -30.73104696041161  6.26759614323892  10.28445453769519  56.47852512650683  18.555161018237605  25.092680102049545  61.2199677398462  63.36893044899173  -20.248502318948926  21.050355457112712  0.000000
1.04  0.000000  0.000000  0.000000  -30.623431262066447  6.274408900459758  10.09416743089815  56.420161545401555  18.667172131633812  25.317146073896694  61.89841534777012  63.44554634999911  -19.8857796763531  20.518886694613744  0.000000
1.08  0.000000  0.000000  0.000000  -30.5170218851548  6.252775802890043  9.978816133753483  56.35986922828313  18.69944869184904  25.272789722261866  62.241742301658654  63.517190162597785  -19.587975355155717  20.046394436522558  0.000000
1.12  0.000000  0.000000  0.000000  -30.413949727025543  6.210974778981974  9.938397446978344  56.29670612002834  18.650301722656778  24.98309031789647  62.24798585254035  63.561224204609466  -19.4538239865608  19.69249442558919  0.000000
1.16  0.000000  0.000000  0.000000  -30.324009942438718  6.163538197843951  9.979744662628024  56.23756716505397  18.515150811713657  24.47736430906596  61.94802701595751  63.552231773091805  -19.57305137193023  19.475757757709495  0.000000
1.2  0.000000  0.000000  0.000000  -30.242513905766906  6.118461809888191  10.105672271052338  56.17812671211826  18.287983082173845  23.78307864522393  61.407824760601976  63.461067719145  -20.011823356632927  19.38529736608078  0.000000
1.24  0.000000  0.000000  0.000000  -30.180301183873006  6.091896266694711  10.325617428926256  56.114897236131554  17.959195649413424  22.925771115202213  60.71869727092969  63.26414876596158  -20.82773083921789  19.398332533619097  0.000000
1.28  0.000000  0.000000  0.000000  -30.13848667693323  6.083830543286837  10.64779290202307  56.044038309988686  17.526686788378004  21.914139640251847  59.98218023368415  62.942606904462146  -22.094405449452257  19.48791477664551  0.000000
